<svg width="28" height="28" viewBox="0 0 28 28" fill="none" xmlns="http://www.w3.org/2000/svg">
<g clip-path="url(#clip0)">
<path d="M24.8816 2.3545C24.6852 2.15828 24.3669 2.15812 24.1705 2.3545L18.9571 7.56764C18.7607 7.76402 18.7607 8.08231 18.9571 8.27874C19.0553 8.37691 19.1839 8.42596 19.3127 8.42596C19.4413 8.42596 19.57 8.37691 19.6683 8.27874L24.8816 3.0656C25.0779 2.86916 25.0779 2.55083 24.8816 2.3545Z" fill="#212121"/>
<path d="M26.2989 3.74999C26.1025 3.55371 25.7842 3.55371 25.5878 3.74999L20.3745 8.96323C20.1782 9.15967 20.1782 9.47795 20.3745 9.67433C20.4727 9.7725 20.6014 9.82155 20.7301 9.82155C20.8587 9.82155 20.9874 9.7725 21.0857 9.67433L26.2989 4.46103C26.4953 4.26465 26.4953 3.94632 26.2989 3.74999Z" fill="#212121"/>
<path d="M21.3811 12.5533L27.8527 6.08172C28.0491 5.88528 28.0491 5.567 27.8527 5.37061C27.6563 5.1744 27.338 5.17423 27.1416 5.37061L20.6701 11.8422C19.8728 12.6395 18.6537 12.8486 17.6366 12.3629C17.4343 12.2663 17.1926 12.3152 17.0438 12.4828L14.8449 14.9603C14.844 14.9613 14.8431 14.9621 14.8422 14.9631C14.8413 14.9641 14.8406 14.9651 14.8398 14.9661L5.33568 25.6737C5.33328 25.6765 5.33087 25.6793 5.32852 25.682C5.29718 25.7189 5.2676 25.7512 5.23763 25.7812C4.61009 26.4087 3.58907 26.4086 2.96181 25.7812C2.65786 25.4773 2.49046 25.0731 2.49046 24.6433C2.49046 24.2134 2.65786 23.8093 2.96236 23.5048C2.99156 23.4754 3.02382 23.4459 3.06096 23.4143C3.0638 23.412 3.06654 23.4096 3.06927 23.4072L9.01096 18.1334C9.21866 17.9491 9.23753 17.6313 9.05323 17.4236C8.86888 17.2159 8.55104 17.1969 8.34344 17.3814L2.40569 22.6516C2.34893 22.7 2.29812 22.7469 2.25076 22.7943C1.75688 23.2882 1.48486 23.9448 1.48486 24.6433C1.48486 25.3417 1.75682 25.9984 2.25071 26.4922C2.76056 27.002 3.4301 27.2569 4.0998 27.2568C4.76923 27.2568 5.43893 27.002 5.9484 26.4925C5.99669 26.4443 6.04345 26.3935 6.09147 26.3373L13.3338 18.1776L20.5763 26.3374C20.6243 26.3936 20.671 26.4445 20.719 26.4924C21.2287 27.0021 21.8983 27.2569 22.5679 27.2569C23.2376 27.2569 23.9072 27.002 24.417 26.4923C25.4364 25.4728 25.4364 23.814 24.4173 22.7947C24.3692 22.7464 24.3183 22.6997 24.2621 22.6517L15.9282 15.2547L17.5587 13.4176C18.8798 13.8857 20.3746 13.5596 21.3811 12.5533ZM23.5984 23.4072C23.6011 23.4096 23.6039 23.412 23.6067 23.4144C23.6435 23.4457 23.6758 23.4753 23.7059 23.5053C24.3333 24.1327 24.3333 25.1537 23.7059 25.7811C23.0784 26.4085 22.0574 26.4085 21.4297 25.7808C21.4 25.7511 21.3703 25.7187 21.339 25.6819C21.3366 25.6791 21.3342 25.6764 21.3318 25.6736L14.0061 17.4201L15.2605 16.0067L23.5984 23.4072Z" fill="#212121"/>
<path d="M23.3723 0.890125C23.1758 0.693852 22.8576 0.693852 22.6612 0.890125L16.1897 7.36179C15.1831 8.36826 14.8572 9.86292 15.3252 11.1843L13.3338 12.9519L11.4198 11.2531C12.4096 9.30555 12.0483 6.94091 10.478 5.37056C8.91843 3.81098 7.11199 2.71346 5.39147 2.28028C3.59537 1.82818 2.05548 2.13 1.05503 3.1304C0.0545723 4.1308 -0.247303 5.67091 0.204908 7.4669C0.638143 9.18731 1.73561 10.9938 3.2953 12.5533C4.8656 14.1237 7.23017 14.485 9.17781 13.4952C9.17781 13.4952 11.0495 15.6038 11.0732 15.6306C11.1726 15.7425 11.3107 15.7996 11.4495 15.7996C11.5682 15.7996 11.6873 15.7578 11.7831 15.6728L16.2601 11.699C16.4277 11.5502 16.4766 11.3085 16.38 11.1062C15.8942 10.089 16.1034 8.87002 16.9007 8.07284L23.3723 1.60123C23.5687 1.40479 23.5687 1.08651 23.3723 0.890125ZM11.4915 14.5871L9.66125 12.5251C9.49916 12.3425 9.22911 12.3025 9.0213 12.4309C7.40922 13.4249 5.34695 13.1831 4.00624 11.8423C2.5732 10.4093 1.56953 8.7683 1.17999 7.22135C0.817682 5.78214 1.02582 4.58175 1.76613 3.8415C2.50632 3.10114 3.70671 2.89311 5.14587 3.25547C6.69281 3.64495 8.33393 4.64858 9.76685 6.08161C11.1076 7.42227 11.3495 9.48454 10.3554 11.0966C10.2272 11.3045 10.267 11.5744 10.4496 11.7366L12.5763 13.6242L11.4915 14.5871Z" fill="#212121"/>
</g>
<defs>
<clipPath id="clip0">
<rect width="28" height="28" fill="white"/>
</clipPath>
</defs>
</svg>
