<svg width="45" height="43" viewBox="0 0 45 43" fill="none" xmlns="http://www.w3.org/2000/svg">
<path d="M43.2 0H1.8C0.804375 0 0 0.768625 0 1.72V41.28C0 42.2314 0.804375 43 1.8 43H43.2C44.1956 43 45 42.2314 45 41.28V1.72C45 0.768625 44.1956 0 43.2 0ZM18.4613 35.0988H15.6037C15.48 35.0988 15.3506 35.0396 15.2719 34.9429L13.275 32.6047L11.2781 34.9429C11.2392 34.9916 11.1889 35.031 11.1314 35.0581C11.0738 35.0851 11.0104 35.099 10.9462 35.0988H8.08875C7.7175 35.0988 7.515 34.6741 7.7625 34.3946L11.2894 30.2666L7.84687 26.2408C7.605 25.9613 7.8075 25.5366 8.17875 25.5366H11.0419C11.1656 25.5366 11.295 25.5958 11.3738 25.6925L13.2863 27.9285L15.1988 25.6925C15.2831 25.5904 15.4012 25.5366 15.5306 25.5366H18.3881C18.7594 25.5366 18.9619 25.9613 18.72 26.2408L15.2719 30.2613L18.7987 34.3893C19.035 34.6741 18.8325 35.0988 18.4613 35.0988ZM18.9 14.5662C18.9 14.6845 18.8212 14.7812 18.72 14.7812H14.85V18.4739C14.85 18.576 14.7487 18.6513 14.625 18.6513H11.925C11.8012 18.6513 11.7 18.576 11.7 18.4792V14.7812H7.83C7.72875 14.7812 7.65 14.6845 7.65 14.5662V11.9862C7.65 11.868 7.72875 11.7712 7.83 11.7712H11.7V8.07325C11.7 7.9765 11.8012 7.90125 11.925 7.90125H14.625C14.7487 7.90125 14.85 7.9765 14.85 8.07325V11.7712H18.7144C18.8213 11.7712 18.9 11.868 18.9 11.9862V14.5662ZM37.35 34.4C37.35 34.5182 37.2712 34.615 37.17 34.615H26.28C26.1787 34.615 26.1 34.5182 26.1 34.4V31.82C26.1 31.7017 26.1787 31.605 26.28 31.605H37.1644C37.2712 31.605 37.35 31.7017 37.35 31.82V34.4ZM37.35 28.81C37.35 28.9283 37.2712 29.025 37.17 29.025H26.28C26.1787 29.025 26.1 28.9283 26.1 28.81V26.23C26.1 26.1117 26.1787 26.015 26.28 26.015H37.1644C37.2712 26.015 37.35 26.1117 37.35 26.23V28.81ZM37.35 14.5662C37.35 14.6845 37.2712 14.7812 37.17 14.7812H26.28C26.1787 14.7812 26.1 14.6845 26.1 14.5662V11.9862C26.1 11.868 26.1787 11.7712 26.28 11.7712H37.1644C37.2712 11.7712 37.35 11.868 37.35 11.9862V14.5662Z" fill="white"/>
</svg>
