<svg id="Слой_1" data-name="Слой 1" xmlns="http://www.w3.org/2000/svg" viewBox="0 0 36.24 36.08"><defs><style>.cls-1{fill:#009832;}</style></defs><path class="cls-1" d="M12,13.5l2.9,10.36H11.46v1.51c0,2.78,0,5.55,0,8.33a4.83,4.83,0,0,1-.09,1.14A1.38,1.38,0,0,1,10,36a1.37,1.37,0,0,1-1.44-1.17,4.85,4.85,0,0,1-.12-1.14c0-2.86,0-5.72,0-8.59V24l-.3,0a6.3,6.3,0,0,0-.1.86C8,27.91,8,31,8,34.05a2.15,2.15,0,0,1-.45,1.45A2.24,2.24,0,0,1,6,35.92c-.71-.07-1-.7-1-1.38q0-4,0-8.06V23.91H1.53L4.8,13.62l-.22-.11a5.31,5.31,0,0,0-.44.81c-.52,1.44-1,2.9-1.53,4.32A3.68,3.68,0,0,1,1.72,20a1.3,1.3,0,0,1-1.14.31c-.29-.12-.5-.66-.57-1a2.5,2.5,0,0,1,.21-1.12c1-3,2-5.9,3-8.87a2.4,2.4,0,0,1,2.26-1.8c2.09-.09,4.19-.06,6.28,0a1.89,1.89,0,0,1,1.76,1.41c1,3,2,6.08,3,9.13a2.26,2.26,0,0,1,.12,1.3,1.69,1.69,0,0,1-.9,1,1.38,1.38,0,0,1-1.13-.53,6.34,6.34,0,0,1-.73-1.68c-.54-1.57-1-3.15-1.57-4.72Z"/><path class="cls-1" d="M25.44,13.14c0,.27,0,.54,0,.81,0,1.53,0,3.06,0,4.59a2.11,2.11,0,0,1-.15,1.11,1.59,1.59,0,0,1-1,.73,1.39,1.39,0,0,1-1-.69A3.42,3.42,0,0,1,23,18.15c0-2.68,0-5.35,0-8,0-2,.82-2.76,2.79-2.76h8a2.19,2.19,0,0,1,2.41,2.39c0,2.79,0,5.59,0,8.38a3.6,3.6,0,0,1-.33,1.53,1.27,1.27,0,0,1-.94.56,1.08,1.08,0,0,1-.81-.6,9.52,9.52,0,0,1-.3-2.25c0-1.4,0-2.8,0-4.19l-.28,0a6.3,6.3,0,0,0-.1.86q0,9.83,0,19.67a3,3,0,0,1-.12,1,1.76,1.76,0,0,1-1.83,1.23,2,2,0,0,1-1.57-2c0-3,0-6,0-9.08,0-.3,0-.6-.05-.9h-.35v1.48c0,2.76,0,5.52,0,8.28,0,1.53-.54,2.12-1.84,2.1s-1.77-.64-1.77-2.18q0-9.7,0-19.41v-1.1Z"/><path class="cls-1" d="M8.68.09a3.82,3.82,0,0,1,3.38,3.5A3.77,3.77,0,0,1,8.48,7a3.56,3.56,0,0,1-3.3-3.41A3.8,3.8,0,0,1,8.68.09Z"/><path class="cls-1" d="M32.83,3.45a3.58,3.58,0,0,1-3.4,3.39A3.53,3.53,0,0,1,26,3.5,3.88,3.88,0,0,1,29.46,0,3.68,3.68,0,0,1,32.83,3.45Z"/><rect class="cls-1" x="17.97" y="-0.15" width="2.29" height="36.23" rx="1.15"/></svg>