<svg id="Слой_1" data-name="Слой 1" xmlns="http://www.w3.org/2000/svg" viewBox="0 0 36.24 36.08"><defs><style>.cls-1{fill:#009832;}.cls-2,.cls-4{fill:none;stroke-miterlimit:10;}.cls-2{stroke:#009640;}.cls-3{fill:#009640;}.cls-4{stroke:#009832;}</style></defs><path class="cls-1" d="M20.48,13.27c0,.27,0,.54,0,.81,0,1.52,0,3,0,4.58a2.25,2.25,0,0,1-.14,1.12,1.62,1.62,0,0,1-1,.72,1.4,1.4,0,0,1-1-.68A3.64,3.64,0,0,1,18,18.27c0-2.67,0-5.35,0-8,0-2,.81-2.77,2.78-2.77,2.68,0,5.36,0,8,0a2.19,2.19,0,0,1,2.41,2.39q0,4.19,0,8.37a3.59,3.59,0,0,1-.32,1.53,1.25,1.25,0,0,1-1,.56,1,1,0,0,1-.81-.6,10,10,0,0,1-.3-2.25c0-1.39,0-2.79,0-4.19l-.28,0c0,.29-.1.58-.1.86q0,9.84,0,19.67a3.26,3.26,0,0,1-.12,1,1.75,1.75,0,0,1-1.83,1.22,1.94,1.94,0,0,1-1.57-2c0-3,0-6.06,0-9.09,0-.3,0-.6,0-.9h-.36v1.48c0,2.76,0,5.52,0,8.28,0,1.54-.54,2.12-1.83,2.11s-1.78-.65-1.78-2.19V13.28Z"/><path class="cls-1" d="M27.87,3.58A3.6,3.6,0,0,1,24.46,7,3.55,3.55,0,0,1,21,3.63,3.87,3.87,0,0,1,24.49.13,3.69,3.69,0,0,1,27.87,3.58Z"/><line class="cls-2" x1="10.34" y1="31.9" x2="10.34" y2="4.28"/><path class="cls-3" d="M10.34,31.14l-1.51-.92,0,.05,1,2.47c.19.86.38,1.72.56,2.58l.57-2.58,1-2.47,0-.05Z"/><path class="cls-3" d="M10.34,5,8.83,6l0,0,1-2.47c.19-.86.38-1.72.56-2.58l.57,2.58,1,2.47,0,0Z"/><line class="cls-2" x1="6.41" y1="0.49" x2="20.43" y2="0.51"/><line class="cls-4" x1="6.41" y1="35.6" x2="20.43" y2="35.57"/><path class="cls-3" d="M7.41,24.56A3.19,3.19,0,0,1,6,25.85a4.71,4.71,0,0,1-2.15.45h0a4.77,4.77,0,0,1-2.15-.45A3.22,3.22,0,0,1,.36,24.56a3.82,3.82,0,0,1-.48-2,3.76,3.76,0,0,1,.36-1.67,3.17,3.17,0,0,1,1-1.19,3,3,0,0,1,1.46-.52h0V20.8l-.09,0a2,2,0,0,0-.75.33,1.69,1.69,0,0,0-.49.6,1.93,1.93,0,0,0-.18.85,1.84,1.84,0,0,0,.32,1.08,2.1,2.1,0,0,0,.91.71,3.63,3.63,0,0,0,1.39.25h0a3.78,3.78,0,0,0,1.41-.25,2.12,2.12,0,0,0,.91-.71,1.81,1.81,0,0,0,.32-1.08,2,2,0,0,0-.17-.83,1.55,1.55,0,0,0-.5-.61,1.92,1.92,0,0,0-.78-.35H5V19.21h.06a2.92,2.92,0,0,1,1.46.52,3.06,3.06,0,0,1,1,1.19A3.63,3.63,0,0,1,7.9,22.6,3.73,3.73,0,0,1,7.41,24.56Z"/><path class="cls-3" d="M0,18.21V16.34l5.57-2.2v0L0,11.91V10H7.76v1.45H2.53v.75L.23,10.6l7.53,3v1l-7.53,3L2.53,16v.75H7.76v1.44Z"/></svg>