<svg id="Слой_1" data-name="Слой 1" xmlns="http://www.w3.org/2000/svg" viewBox="0 0 1290 3403.74"><defs><style>.cls-1{fill:#fbe6d5;}.cls-2{fill:#1d1d1b;}.cls-3{fill:#f9d1c7;}.cls-4{fill:#e20613;}.cls-5{fill:#fff;}.cls-6{fill:#009540;}.cls-7{fill:#025c2b;}</style></defs><path class="cls-1" d="M1285.42,1420.37C1171.11,1352.53,436,1195,0,1418.56V3143.19c228.16,153.16,555.72,261.29,649.08,260.55,134.2-1.07,430.14-112.79,640.92-270.89V1423.09Z"/><path class="cls-1" d="M1290,1458.07c-87.12-39.94-192.25-77.44-315-103.29-131.16-27.6-339.08-36.5-339.08-36.5H541.77c-71.52,5.27-172.82,14.89-248.4,30.78C180.39,1372.8,82.51,1406.5,0,1442.84V2884.71H1290V1458.07Z"/><path class="cls-2" d="M354.41,1471.68l7.8,101.32c-60.16-.22-144.92,9.81-210.09,67.4-53.38,47.18-72.73,107.8-78.62,105-7-3.26,10.52-92.42,70.15-162.88C213.41,1500.12,311.1,1478.41,354.41,1471.68Z"/><path class="cls-2" d="M921.74,1471.68Q917.86,1522.35,914,1573c60.15-.22,144.92,9.81,210.09,67.4,53.38,47.18,72.73,107.8,78.62,105,7-3.26-10.52-92.42-70.16-162.88C1062.75,1500.12,965.06,1478.41,921.74,1471.68Z"/><ellipse class="cls-3" cx="634.14" cy="2353.35" rx="146.51" ry="101.78"/><path class="cls-4" d="M637.74,2845.74c-153.59,0-270.78-54-348.32-160.62-61.43-84.44-79-176.75-85.61-211.5-1-5.2-1.77-9.3-2.32-11.28l8.8-2.45c.66,2.34,1.43,6.4,2.5,12,6.51,34.19,23.8,125,84,207.82,75.72,104.09,190.43,156.86,340.93,156.86Z"/><path class="cls-4" d="M638.41,2845.74v-9.14c150.51,0,265.22-52.77,340.94-156.86,60.22-82.78,77.51-173.63,84-207.82,1.07-5.63,1.84-9.69,2.5-12l8.8,2.45c-.55,2-1.34,6.08-2.32,11.28-6.62,34.75-24.18,127.06-85.61,211.5C909.2,2791.7,792,2845.74,638.41,2845.74Z"/><path class="cls-4" d="M446,1143.68l53.18-117,2.07-4.56c-43.47,1.82-87,5.1-130,10.09l14.74,22Z"/><path class="cls-4" d="M116.6,1180.83l23-85.77,4.68-17.46a964.25,964.25,0,0,0-98.1,35.15l1.73,1.67Z"/><path class="cls-4" d="M1153.41,1184.72l69.34-67.15,7.21-7c-28.82-9.34-63.93-19.06-104-28.51l4.26,15.92Z"/><path class="cls-4" d="M820.89,1147.16l60.63-90.48,10.88-16.24c-40.43-5.18-82.55-9.58-125.81-12.94l.62,1.38Z"/><ellipse class="cls-5" cx="294.74" cy="1963.94" rx="206.2" ry="245.13"/><ellipse class="cls-6" cx="294.74" cy="1910.17" rx="149.96" ry="188.89"/><ellipse class="cls-2" cx="294.74" cy="1893.52" rx="95" ry="119.8"/><circle class="cls-5" cx="241.3" cy="1834.88" r="61.16"/><ellipse class="cls-5" cx="1006.14" cy="1963.94" rx="206.2" ry="245.13"/><ellipse class="cls-6" cx="1006.14" cy="1910.17" rx="149.96" ry="188.89"/><ellipse class="cls-2" cx="1006.14" cy="1896.04" rx="95" ry="119.8"/><circle class="cls-5" cx="963.72" cy="1834.88" r="61.16"/><path class="cls-2" d="M276,1716.43q9-.78,17.59-.77c79.44,0,129.77,48.24,143.14,68.24,42.75,63.93,57.07,136.31,61.74,171.9.1-49.9-10.41-171.66-109.48-231.44-35.32-21.32-99.12-39.68-162.66-21.25C167.93,1720,121,1763.41,86.71,1832l-.48,1-1.07-.14C43.56,1827.51,17,1825.39,0,1825v19.66c19.32,8,50.38,19.69,99.24,36.62C154.58,1764.8,199.28,1723.17,276,1716.43Z"/><path class="cls-2" d="M493.94,1879.22c-10.39-49.63-36.77-117.25-103.41-157.47-35.86-21.64-100.6-40.27-165.09-21.56-58.93,17.09-106.36,60.66-141,129.49-40.86-5.21-67.31-7.31-84.47-7.7v1.48c17.46.41,44.35,2.62,85.35,7.87,87.44-175.12,240-147.17,304.39-108.28,128.11,77.32,109.34,255,109.34,255s-4.07-104.18-63.66-193.29c-12.68-19-68.92-74.73-159.33-66.79-76.39,6.71-120.43,47.74-176.06,165.18-47.11-16.31-79.35-28.27-100-36.89v1.64c19.53,8.13,50.54,19.73,99.53,36.69l1.29.44.59-1.23c55.05-116.21,99.16-157.67,174.81-164.31,104.48-9.18,157.43,65.36,157.93,66.12,58.65,87.71,63.37,191.47,63.41,192.5l3,.11C500.64,1977.75,505.18,1932.92,493.94,1879.22Z"/><path class="cls-2" d="M85.16,1832.84l1.07.14.48-1c34.26-68.6,81.22-112,139.58-128.9,63.54-18.43,127.34-.07,162.66,21.25C488,1784.14,498.53,1905.9,498.43,1955.8c-4.67-35.59-19-108-61.74-171.9-13.37-20-63.7-68.24-143.14-68.24q-8.57,0-17.59.77c-76.68,6.74-121.38,48.37-176.72,164.81-48.86-16.93-79.92-28.6-99.24-36.62v1.62c20.68,8.62,52.92,20.58,100,36.89,55.63-117.44,99.67-158.47,176.06-165.18,90.41-7.94,146.65,47.83,159.33,66.79C495,1873.85,499.08,1978,499.08,1978s18.77-177.66-109.34-255c-64.44-38.89-216.95-66.84-304.39,108.28-41-5.25-67.89-7.46-85.35-7.87v1.5C17,1825.39,43.56,1827.51,85.16,1832.84Z"/><path class="cls-2" d="M1213.45,1837.77l-1.07.13-.48-1c-34.26-68.59-81.22-112-139.58-128.89a195,195,0,0,0-54.44-7.58c-43.58,0-83.1,13.66-108.22,28.83-99.11,59.81-109.59,181.59-109.48,231.47,4.66-35.59,19-108,61.74-171.94,14.34-21.43,71.09-75.32,160.73-67.46,76.68,6.74,121.39,48.37,176.72,164.81,42.17-14.61,71.08-25.31,90.63-33.13v-22.83C1273,1831.05,1248.6,1833.27,1213.45,1837.77Z"/><path class="cls-2" d="M1198.58,1888.05c-55.63-117.43-99.67-158.46-176.06-165.17-90.41-7.94-146.65,47.83-159.33,66.79C803.6,1878.78,799.53,1983,799.53,1983s-18.77-177.66,109.34-255c64.44-38.89,216.95-66.84,304.39,108.28,34.78-4.46,59.41-6.72,76.74-7.56v-1.49c-17,.81-41.28,3-75.86,7.4-34.61-68.84-82-112.4-141-129.5-64.49-18.7-129.23-.07-165.08,21.57-66.64,40.22-93,107.83-103.41,157.47-11.24,53.7-6.7,98.52-6.65,99l3-.1c0-1,4.74-104.77,63.41-192.5.5-.76,53.4-75.28,157.93-66.12,75.65,6.64,119.76,48.1,174.81,164.3l.59,1.24,1.29-.45c42.33-14.65,71.24-25.31,90.92-33.17v-1.64C1269.34,1863,1239.6,1873.85,1198.58,1888.05Z"/><path class="cls-2" d="M908.87,1728c-128.11,77.32-109.34,255-109.34,255s4.07-104.18,63.66-193.29c12.68-19,68.92-74.73,159.33-66.79,76.39,6.71,120.43,47.74,176.06,165.17,41-14.2,70.76-25.1,91.42-33.37V1853c-19.55,7.82-48.46,18.52-90.63,33.13-55.33-116.44-100-158.07-176.72-164.81-89.64-7.86-146.39,46-160.73,67.46-42.76,64-57.08,136.35-61.74,171.94-.11-49.88,10.37-171.66,109.48-231.47,25.12-15.17,64.64-28.83,108.22-28.83a195,195,0,0,1,54.44,7.58c58.36,16.93,105.32,60.3,139.58,128.89l.48,1,1.07-.13c35.15-4.5,59.58-6.72,76.55-7.56v-1.51c-17.33.84-42,3.1-76.74,7.56C1125.82,1661.14,973.31,1689.09,908.87,1728Z"/><path class="cls-4" d="M142.53,248.48A1230.37,1230.37,0,0,0,0,381.57v686.52l46.19,44.66a964.25,964.25,0,0,1,98.1-35.15l40.53-151.09c12.86-48,76.2-58.47,103.86-17.24l82.5,122.94c43.07-5,86.58-8.27,130.05-10.09l73.17-161c11.23-24.74,35-36.35,58.16-35.11,23.37-1.24,47.35,10.5,58.69,35.49l75.34,166c43.26,3.36,85.38,7.76,125.81,12.94l87.29-130.26c27.93-41.67,91.87-31,104.85,17.43l41.38,154.48c40.11,9.45,75.22,19.17,104,28.51l60-58.14V55C1000.7-20.83,536.8-65.16,142.53,248.48Z"/><path class="cls-7" d="M1227,1187.11l-68.8,67.14-23-86.71-45.29-170.4c-12.88-48.47-76.32-59.1-104-17.42l-97.41,146.49-60.16,90.49L775,1098.41,699.67,931c-11.26-25-35-36.73-58.24-35.49-23-1.24-46.56,10.37-57.71,35.1l-74.66,165.56-52.75,117-59.6-89.51L300.23,978.8c-27.45-41.22-90.29-30.71-103.06,17.24L152.31,1164.6l-22.82,85.76L61.34,1184,0,1124.18v394.4c84.69-38.69,186.42-74.89,304.88-100,75-15.88,175.5-25.51,246.47-30.78h93.37s206.31,8.9,336.44,36.51c120.08,25.47,223.14,62.27,308.84,101.56V1125.66Z"/><path class="cls-6" d="M1230,1110.6l-7.21,7-69.34,67.15L1130.18,1098l-4.26-15.92-41.38-154.48c-13-48.48-76.92-59.1-104.85-17.43L892.4,1040.44l-10.88,16.24-60.63,90.48-53.68-118.28-.62-1.38-75.34-166c-11.34-25-35.32-36.73-58.69-35.49-23.15-1.24-46.93,10.37-58.16,35.11l-73.17,161-2.07,4.56-53.18,117-60.06-89.5-14.74-22-82.5-122.94c-27.66-41.23-91-30.71-103.86,17.24L144.29,1077.6l-4.68,17.46-23,85.77-68.68-66.41-1.73-1.67L0,1068.09v374.75c82.51-36.34,180.39-70,293.37-93.78,75.58-15.89,176.88-25.51,248.4-30.78h94.11s207.92,8.9,339.08,36.5c122.79,25.85,227.92,63.35,315,103.29V1052.46Z"/></svg>