<svg id="Слой_1" data-name="Слой 1" xmlns="http://www.w3.org/2000/svg" viewBox="0 0 39.07 36.07"><defs><style>.cls-1{fill:#009832;}</style></defs><path class="cls-1" d="M33.82,5.3A18.05,18.05,0,0,1,8.23,30.77a17.17,17.17,0,0,1-5-9.77L.11,22l4.55-8.2L9.17,22,5.84,21a15.09,15.09,0,0,0,3.52,6.86l0,0c.18.22.37.44.57.64s.4.42.6.61v0a15.12,15.12,0,0,0,9.15,4.13v0c.57.05,1.72.08,1.72.08a15.07,15.07,0,0,0,9.39-3.56h0c.21-.19.43-.37.64-.57s.41-.4.6-.61l0,0a15.14,15.14,0,0,0,4.13-9.16h0a16.29,16.29,0,0,0,.06-1.71h0a15.17,15.17,0,0,0-3.55-9.4l0,0c-.18-.22-.37-.43-.57-.64L31.49,7h0a15.12,15.12,0,0,0-9.16-4.13v0a16.28,16.28,0,0,0-1.71-.05v0a15.19,15.19,0,0,0-9.39,3.56v0c-.21.18-.43.37-.64.57s-.41.4-.6.6l0,0a15,15,0,0,0-2.1,2.78A1.42,1.42,0,0,1,6.25,11a1.41,1.41,0,0,1-.82-2.05A17.84,17.84,0,0,1,8.88,4.67,18.12,18.12,0,0,1,33.82,5.3Z"/><path class="cls-1" d="M11.35,19.66a1.19,1.19,0,0,0,1.16,1.19H23l0-2.43-.06-8.17a1.15,1.15,0,1,0-2.3,0l.06,8.18-8.18.06A1.16,1.16,0,0,0,11.35,19.66Z"/></svg>