<svg id="Слой_1" data-name="Слой 1" xmlns="http://www.w3.org/2000/svg" viewBox="0 0 35 35"><defs><style>.cls-1{fill:#009832;}</style></defs><path class="cls-1" d="M10.51,11.22h1.65v17.4H10.51Z"/><path class="cls-1" d="M27.56,7.1c.06-.81.07-.81.88-.81h1.4V4.37H21.16c0-.1,0-1,0-1.36A3.15,3.15,0,0,0,18,0q-2.27,0-4.53,0a3.1,3.1,0,0,0-2.82,1.73,9.11,9.11,0,0,0-.37,2.65H1.56V6.28H3.47c.2,0,.32,0,.33.28C3.92,8.23,5.42,28,5.64,31.28a3.65,3.65,0,0,0,3.54,3.36c4,0,6,.09,10,.09a10.6,10.6,0,0,1-2.73-2H9.26a1.46,1.46,0,0,1-1.42-1.32C7.51,26.56,6,6.58,6,6.58L6,6.3H25.44c0,.09-.51,7.42-.72,10.27a8.63,8.63,0,0,1,2.06.51C27.05,13.59,27.29,10.59,27.56,7.1ZM19,4.37H12.41a12.81,12.81,0,0,1,.12-1.81.85.85,0,0,1,.89-.63c1.51,0,3,0,4.54,0a1,1,0,0,1,1,.9C18.94,2.9,19,3.94,19,4.37Z"/><path class="cls-1" d="M20.89,11.14H19.25v6.31a9.07,9.07,0,0,1,1.63-.6Z"/><path class="cls-1" d="M16.53,11.22H14.88V21.76a9.3,9.3,0,0,1,1.65-2.36Z"/><path class="cls-1" d="M31.68,27.34,33.44,23,32,23.75a8.43,8.43,0,0,0-2.94-4.52,8.57,8.57,0,0,0-2.31-1.35,8.7,8.7,0,0,0-2.16-.56,8.93,8.93,0,0,0-3.49.26A8.85,8.85,0,0,0,17,20.07a2.75,2.75,0,0,0-.22.26,8.85,8.85,0,0,0,.89,12.42l.21.19A8.91,8.91,0,0,0,30.08,32a8.94,8.94,0,0,0,1.47-2.26.69.69,0,1,0-1.27-.55,7.61,7.61,0,0,1-.89,1.46h0l-.27.32c-.09.11-.19.21-.29.31h0a7.35,7.35,0,0,1-3.72,2.06c-.23,0-.45.12-.69.15h0c-.27,0-.55,0-.83.06h0a7.47,7.47,0,0,1-3.48-.81,6.86,6.86,0,0,1-1.2-.75h0l-.33-.26-.31-.29h0a7.57,7.57,0,0,1-1.9-3.07,7,7,0,0,1-.3-1.34h0A5.93,5.93,0,0,1,16,26.2h0a7.41,7.41,0,0,1,.75-3.34,8,8,0,0,1,.8-1.34h0l.27-.32c.09-.11.19-.21.28-.31h0a7.85,7.85,0,0,1,.88-.76A7.34,7.34,0,0,1,21.13,19a7.52,7.52,0,0,1,1.4-.34s.56,0,.84,0v0a8.74,8.74,0,0,1,1.14.08,7.51,7.51,0,0,1,2.15.65,7.3,7.3,0,0,1,1.39.83h0c.11.09.22.17.33.27l.31.28h0a7,7,0,0,1,2,3.06l-1.91-.46Z"/><path class="cls-1" d="M24.44,26.29l0-4a.52.52,0,0,0-.14-.36.55.55,0,0,0-.43-.2.57.57,0,0,0-.56.57l0,4-4,0a.58.58,0,0,0,0,1.15h5.14Z"/></svg>