<svg id="Слой_1" data-name="Слой 1" xmlns="http://www.w3.org/2000/svg" viewBox="0 0 38.33 36.07"><defs><style>.cls-1{fill:#009832;}</style></defs><path class="cls-1" d="M6.61,32A18.05,18.05,0,0,1,29.47,4.05a17.09,17.09,0,0,1,6,9.21l2.87-1.51-3.57,8.81L28.83,12.4l3.88.94a14,14,0,0,0-4.06-6.23l0,0c-.2-.2-.41-.4-.63-.58s-.44-.37-.66-.55l0,0a15.18,15.18,0,0,0-9.54-3.17v0c-.58,0-1.72.09-1.72.09a15.2,15.2,0,0,0-9,4.5l0,0c-.2.2-.39.41-.58.63s-.37.44-.54.66l0,0a15.12,15.12,0,0,0-3.17,9.54h0A16,16,0,0,0,3,20H3a15.13,15.13,0,0,0,4.49,9l0,0c.2.2.41.39.63.58l.66.54v0a15.11,15.11,0,0,0,9.53,3.17v0A16.38,16.38,0,0,0,20,33.1v0a15.1,15.1,0,0,0,9-4.49l0,0c.2-.2.4-.41.58-.63l.55-.66h0a15.69,15.69,0,0,0,1.8-3,1.41,1.41,0,1,1,2.59,1.13A18.06,18.06,0,0,1,6.61,32Z"/><path class="cls-1" d="M8.38,19.66a1.2,1.2,0,0,0,1.16,1.19H20l0-2.43L20,10.25a1.16,1.16,0,1,0-2.31,0l.06,8.18-8.17.06A1.17,1.17,0,0,0,8.38,19.66Z"/></svg>