<svg id="Слой_1" data-name="Слой 1" xmlns="http://www.w3.org/2000/svg" viewBox="0 0 20 20"><defs><style>.cls-1{fill:#fff;}</style></defs><path class="cls-1" d="M1.29,20A1.3,1.3,0,0,1,0,18.72V1.3A1.3,1.3,0,0,1,1.3,0H15.61A.51.51,0,0,1,16,.16c.73.74,3.27,3.27,3.81,3.8a.62.62,0,0,1,.19.46C20,6,20,16.91,20,18.51c0,.32-.25,1.49-1.27,1.49Zm15.21-.88V19c0-2.47,0-4.94,0-7.41a1.2,1.2,0,0,0-1.18-1.18H4.68a1.16,1.16,0,0,0-1.08.7,1.61,1.61,0,0,0-.11.78v7.19ZM4.4.87a.86.86,0,0,0-.92.93V6.44a.88.88,0,0,0,.95.95h9.85a.88.88,0,0,0,.94-.93V1.8a.9.9,0,0,0-.93-.93C12.64.88,6,.87,4.4.87ZM2.6,17c-.13,0-.25,0-.37,0H1.75c0,.16,0,.32,0,.47s0,.25,0,.37H2.6Zm15.66.86V17a.06.06,0,0,0-.05-.05H17.4v.86Z"/><path class="cls-1" d="M11.74,2.24a.45.45,0,0,1,.5-.51h1.17a.46.46,0,0,1,.51.52V6a.46.46,0,0,1-.51.51H12.24a.45.45,0,0,1-.5-.5Z"/></svg>