<svg id="Слой_1" data-name="Слой 1" xmlns="http://www.w3.org/2000/svg" xmlns:xlink="http://www.w3.org/1999/xlink" viewBox="0 0 128 128"><defs><style>.cls-1{fill:none;}.cls-2{clip-path:url(#clip-path);}.cls-3{fill:url(#Безымянный_градиент_8);}.cls-4{fill:#ffe4d2;}.cls-5{fill:#1d1d1b;}.cls-6{fill:#ffcec4;}.cls-7{fill:#f50000;}.cls-8{fill:#005f24;}.cls-9{fill:#009832;}.cls-10{fill:#fff;}.cls-11{fill:#ffed00;}</style><clipPath id="clip-path"><rect class="cls-1" width="128" height="128" rx="12"/></clipPath><radialGradient id="Безымянный_градиент_8" cx="64" cy="64" r="64" gradientUnits="userSpaceOnUse"><stop offset="0.32" stop-color="#fff"/><stop offset="1" stop-color="#009e00"/></radialGradient></defs><g class="cls-2"><rect class="cls-3" width="128" height="128"/><path class="cls-4" d="M83.58,104c3.33-3.7,9-10,7.46-17.06a11.82,11.82,0,0,0-1.71-4A3.65,3.65,0,0,1,90,78.21l.09-.07a41.21,41.21,0,0,0,7.77-8.8c.28-.41,2.84-4.26,2.45-4.57-.08-.06-.27,0-.33.08-.62.37-11.22,1.67-11.26-.85-18.67-17.1-57.53-12.82-65,0,0,2.53-10.59,1.26-11.21.9-.06,0-.25-.15-.33-.09-.4.31,2.17,4.16,2.45,4.57a41.06,41.06,0,0,0,7.77,8.81l.07.06A3.64,3.64,0,0,1,23.19,83a12,12,0,0,0-1.69,4C20,94,25.62,100.34,29,104,54.63,129.1,76.77,112.33,83.58,104Z"/><path class="cls-5" d="M46.59,59.87c.08,1.15.17,2.3.26,3.45a10.65,10.65,0,0,0-7.17,2.29c-1.82,1.61-2.48,3.67-2.68,3.58s.36-3.15,2.39-5.55A11.71,11.71,0,0,1,46.59,59.87Z"/><path class="cls-5" d="M66,59.87l-.27,3.45a10.66,10.66,0,0,1,7.18,2.29c1.82,1.61,2.48,3.68,2.68,3.58s-.36-3.15-2.4-5.55A11.69,11.69,0,0,0,66,59.87Z"/><ellipse class="cls-6" cx="56.13" cy="89.9" rx="5" ry="3.47"/><path class="cls-7" d="M46.55,100.86A14.56,14.56,0,0,1,44.16,95a3.06,3.06,0,0,0-.07-.34l-.3.08c0,.06,0,.17.06.32a14.8,14.8,0,0,0,2.45,6c2.22,3,5.57,4.59,10,4.59v-.31C52,105.32,48.71,103.82,46.55,100.86Z"/><path class="cls-7" d="M68.45,94.61a3.06,3.06,0,0,0-.07.34,14.56,14.56,0,0,1-2.4,5.91c-2.15,3-5.42,4.46-9.7,4.46v.31c4.39,0,7.74-1.54,10-4.58a15,15,0,0,0,2.45-6c0-.15,0-.26.06-.32Z"/><path class="cls-7" d="M88,15c-1.6-.79-27.93-13.23-48.64,3.22-17.18,13.65-17.19,35.39-17,37.59,6.21-1.39,33.52-12.63,61.63,3a9.57,9.57,0,0,0,15.64-.73c2.08,4,3,9,3.48,14.6a104.72,104.72,0,0,1-1.61,29.2c3.79-4.47,13.84-17.55,14.35-36.37C116.28,48.18,108.72,25.18,88,15Z"/><path class="cls-5" d="M89.28,71.61C90,67.82,93,65,91,62.71c-19.38-21.35-67.76-1.78-68.42,0-1,2.84.93,5.11,1.69,8.9.5,2.52.39,6.26-1.74,11.24-1.35,4.53,8.88-2.31,10.09-7.94.52-2.38.55-11.94,1.69-13.95,2.93-5.18,30.45-7.29,37.94-4.69a13.31,13.31,0,0,1,7,4.69c1.34,1.89,1.18,11.57,1.69,13.95C82.15,80.54,92.37,87.38,91,82.85,88.89,77.87,88.78,74.13,89.28,71.61Z"/><path class="cls-8" d="M92.05,51l-5.2,3-2.37,1.35L84.31,52,84,46a2,2,0,0,0-3.35-1.33l-4.29,4.18L74,51.13l-.79-3-1.55-5.8A2,2,0,0,0,69.28,41a2,2,0,0,0-1.14.81l-3.32,5-2.06,3.09-1.82-4-2.57-5.7a2.23,2.23,0,0,0-3-1,2.18,2.18,0,0,0-.95,1l-2.55,5.64-1.8,4-2-3-3.29-4.94a2,2,0,0,0-3.52.59l-1.53,5.75L38.91,51l-2.33-2.26L32.33,44.6A2,2,0,0,0,29,45.91l-.3,5.94-.17,3.23L26.2,53.74l-5.15-2.92a2,2,0,0,0-2.87,2.11l1.19,5.83,1.46,7.07a1.94,1.94,0,0,0,2.3,1.53A1.84,1.84,0,0,0,23.9,67s7.16-7.37,21-10.29a68.5,68.5,0,0,1,8.41-1H56.5A88.84,88.84,0,0,1,68,56.92c14,3,21.2,10.41,21.2,10.41a2,2,0,0,0,2.76-.42,2.11,2.11,0,0,0,.35-.78L93.75,59,95,53.09A2,2,0,0,0,92.05,51Z"/><path class="cls-9" d="M92.14,50l-7.65,4.35L84,45a2,2,0,0,0-2.09-1.91,2,2,0,0,0-1.29.57l-6.7,6.51-2.35-8.83A2,2,0,0,0,69.12,40a2,2,0,0,0-1.12.81L62.58,48.9l-4.44-9.81a2.24,2.24,0,0,0-3-1,2.28,2.28,0,0,0-1,1l-4.39,9.71-5.38-8.05a2,2,0,0,0-2.74-.54,2,2,0,0,0-.81,1.13L38.5,50.06l-6.64-6.45a2,2,0,0,0-3.34,1.32l-.47,9.25-7.58-4.3a2,2,0,0,0-2.69.76C17.55,51.05,20.24,65,20.24,65a2,2,0,0,0,2.34,1.54,49.17,49.17,0,0,1,22-10.72A69.8,69.8,0,0,1,53,54.78h3.22A91.27,91.27,0,0,1,67.84,56C82,59,89.25,66.53,89.25,66.53A2,2,0,0,0,92,66.09c.17-.23,3-13.92,3-13.92a2,2,0,0,0-1.55-2.38A2,2,0,0,0,92.14,50Z"/><path class="cls-5" d="M51.53,77.12a14.23,14.23,0,0,0-2.18-6.59,6.17,6.17,0,0,0-5.44-2.28c-2.6.23-4.11,1.63-6,5.63-3.36-1.16-4.5-1.68-4.46-1.86s.67-.32,4,.09c3-6,8.19-5,10.39-3.68C52.17,71.06,51.53,77.12,51.53,77.12Z"/><path class="cls-5" d="M51.59,77.12h-.13a14.26,14.26,0,0,0-2.16-6.56,6.1,6.1,0,0,0-5.38-2.24c-2.58.22-4.08,1.63-6,5.59l0,0-.06,0c-4.22-1.46-4.54-1.75-4.5-1.93s.1-.46,4,0a8,8,0,0,1,4.81-4.41,7.42,7.42,0,0,1,5.64.73C52.18,71,51.59,77.06,51.59,77.12Zm-7.08-9A6.11,6.11,0,0,1,49.4,70.5a14.1,14.1,0,0,1,2.09,5.7c0-1.79-.46-5.75-3.73-7.72a7.3,7.3,0,0,0-5.55-.72,7.86,7.86,0,0,0-4.75,4.38l0,0h0c-3.54-.46-3.87-.22-3.89-.14s.82.53,4.37,1.76c1.89-4,3.42-5.38,6-5.61C44.11,68.17,44.31,68.17,44.51,68.17Z"/><path class="cls-5" d="M61.78,77.28A14.26,14.26,0,0,1,64,70.7a6.16,6.16,0,0,1,5.44-2.28c2.61.23,4.11,1.63,6,5.63,3.36-1.16,4.5-1.68,4.46-1.86s-.67-.33-4,.09c-3-6-8.19-5-10.39-3.69C61.14,71.23,61.78,77.28,61.78,77.28Z"/><path class="cls-5" d="M61.72,77.29c0-.06-.6-6.12,3.76-8.75a7.45,7.45,0,0,1,5.65-.73,7.94,7.94,0,0,1,4.81,4.4c3.89-.49,4-.17,4,0s.08.35-4.5,1.93h0l0-.05c-1.87-3.95-3.38-5.36-6-5.59A6.12,6.12,0,0,0,64,70.73a14.26,14.26,0,0,0-2.16,6.56Zm7.51-9.62a7.41,7.41,0,0,0-3.69,1c-3.27,2-3.71,5.93-3.73,7.72a14.18,14.18,0,0,1,2.09-5.71,6.19,6.19,0,0,1,5.5-2.3c2.62.23,4.14,1.65,6,5.61,3.55-1.23,4.34-1.64,4.37-1.77s-.35-.31-3.89.14h0l0,0a7.85,7.85,0,0,0-4.76-4.38A6.37,6.37,0,0,0,69.23,67.67Z"/><ellipse class="cls-10" cx="44.55" cy="76.64" rx="7.04" ry="8.35"/><ellipse class="cls-9" cx="44.55" cy="74.8" rx="5.12" ry="6.44"/><ellipse class="cls-5" cx="44.55" cy="74.24" rx="3.24" ry="4.08"/><circle class="cls-10" cx="42.73" cy="72.24" r="2.09"/><ellipse class="cls-10" cx="68.83" cy="76.64" rx="7.04" ry="8.35"/><ellipse class="cls-9" cx="68.83" cy="74.8" rx="5.12" ry="6.44"/><ellipse class="cls-5" cx="68.83" cy="74.32" rx="3.24" ry="4.08"/><circle class="cls-10" cx="67.38" cy="72.24" r="2.09"/><ellipse class="cls-11" cx="97.61" cy="106.4" rx="7.75" ry="7.73"/></g></svg>