<svg id="Слой_1" data-name="Слой 1" xmlns="http://www.w3.org/2000/svg" viewBox="0 0 36.24 36.08"><defs><style>.cls-1,.cls-2,.cls-3,.cls-4,.cls-5{fill:none;}.cls-1,.cls-2,.cls-3,.cls-4{stroke:#009640;}.cls-1,.cls-3,.cls-5{stroke-miterlimit:10;}.cls-1,.cls-4,.cls-5{stroke-width:2px;}.cls-2,.cls-4{stroke-linejoin:round;}.cls-2{stroke-width:1.1px;}.cls-4,.cls-5{stroke-linecap:round;}.cls-5{stroke:#019640;}</style></defs><path class="cls-1" d="M2.28,1.85l-.09.08a3.6,3.6,0,0,0-1.1,2.58V31.33a3.58,3.58,0,0,0,1,2.5h0A3.59,3.59,0,0,0,4.66,34.9H31.54a3.57,3.57,0,0,0,2.52-1l0,0a3.56,3.56,0,0,0,1.05-2.52V4.45a3.57,3.57,0,0,0-1.05-2.52l0,0a3.58,3.58,0,0,0-2.53-1H4.74A3.54,3.54,0,0,0,2.28,1.85Z"/><path class="cls-2" d="M17.39,3.32h1.43a57,57,0,0,1,5.91.37l1.41.18a39.34,39.34,0,0,1,4.68,1,1.12,1.12,0,0,1,.73,1.52L28.6,13.23a1.1,1.1,0,0,1-1.23.66,45.63,45.63,0,0,0-7.17-.73,2.61,2.61,0,1,1-4.71,1.55A2.58,2.58,0,0,1,16,13.16a45.63,45.63,0,0,0-7.17.73,1.12,1.12,0,0,1-1.23-.66L4.66,6.36A1.12,1.12,0,0,1,5.4,4.84a39.16,39.16,0,0,1,4.67-1l1.42-.18A56.79,56.79,0,0,1,17.39,3.32Z"/><path class="cls-3" d="M15,4.93l-1.31.57,3,7A2.71,2.71,0,0,1,18,12.1Z"/><path class="cls-3" d="M18.11,13.53a1.19,1.19,0,1,0,1.18,1.18A1.17,1.17,0,0,0,18.11,13.53Z"/><line class="cls-4" x1="8.42" y1="4.93" x2="9.7" y2="7.62"/><line class="cls-4" x1="27.77" y1="4.75" x2="26.5" y2="7.42"/><line class="cls-4" x1="18.12" y1="3.99" x2="18.12" y2="6.79"/><line class="cls-5" x1="5.53" y1="30.33" x2="31.64" y2="30.33"/></svg>